<?xml version="1.0" encoding="UTF-8" standalone="no"?>
<!-- Created with Inkscape (http://www.inkscape.org/) -->

<svg
   xmlns:dc="http://purl.org/dc/elements/1.1/"
   xmlns:cc="http://creativecommons.org/ns#"
   xmlns:rdf="http://www.w3.org/1999/02/22-rdf-syntax-ns#"
   xmlns:svg="http://www.w3.org/2000/svg"
   xmlns="http://www.w3.org/2000/svg"
   xmlns:sodipodi="http://sodipodi.sourceforge.net/DTD/sodipodi-0.dtd"
   xmlns:inkscape="http://www.inkscape.org/namespaces/inkscape"
   width="37.431427mm"
   height="8.5513334mm"
   viewBox="0 0 37.431427 8.5513334"
   version="1.1"
   id="svg8"
   inkscape:version="0.92.4 (5da689c313, 2019-01-14)"
   sodipodi:docname="logo.svg">
  <defs
     id="defs2" />
  <sodipodi:namedview
     id="base"
     pagecolor="#ffffff"
     bordercolor="#666666"
     borderopacity="1.0"
     inkscape:pageopacity="0.0"
     inkscape:pageshadow="2"
     inkscape:zoom="5.6"
     inkscape:cx="67.817919"
     inkscape:cy="7.0185877"
     inkscape:document-units="mm"
     inkscape:current-layer="layer1"
     showgrid="false"
     fit-margin-top="0"
     fit-margin-left="0"
     fit-margin-right="0"
     fit-margin-bottom="0"
     inkscape:window-width="1920"
     inkscape:window-height="1001"
     inkscape:window-x="-9"
     inkscape:window-y="-9"
     inkscape:window-maximized="1" />
  <metadata
     id="metadata5">
    <rdf:RDF>
      <cc:Work
         rdf:about="">
        <dc:format>image/svg+xml</dc:format>
        <dc:type
           rdf:resource="http://purl.org/dc/dcmitype/StillImage" />
        <dc:title></dc:title>
      </cc:Work>
    </rdf:RDF>
  </metadata>
  <g
     inkscape:label="Layer 1"
     inkscape:groupmode="layer"
     id="layer1"
     transform="translate(-59.570971,-120.7051)">
    <g
       aria-label="Octanx"
       style="font-style:normal;font-variant:normal;font-weight:normal;font-stretch:normal;font-size:10.58333302px;line-height:1.25;font-family:moderna;-inkscape-font-specification:moderna;letter-spacing:0px;word-spacing:0px;fill:#000000;fill-opacity:1;stroke:none;stroke-width:0.26458332"
       id="text12">
      <path
         sodipodi:type="inkscape:offset"
         inkscape:radius="0"
         inkscape:original="M 63.835938 120.70508 C 62.643549 120.70508 61.634094 121.11786 60.808594 121.94336 C 59.983094 122.76886 59.570312 123.77832 59.570312 124.9707 C 59.570313 126.16309 59.983094 127.17059 60.808594 127.99609 C 61.634094 128.81454 62.643549 129.22461 63.835938 129.22461 C 65.021271 129.22461 66.026063 128.81183 66.851562 127.98633 C 67.677062 127.16083 68.089844 126.15604 68.089844 124.9707 C 68.089844 123.77832 67.677062 122.76886 66.851562 121.94336 C 66.033119 121.11786 65.028327 120.70508 63.835938 120.70508 z M 74.308594 120.70508 L 74.308594 126.26172 C 74.308594 127.05194 74.584432 127.72115 75.134766 128.27148 C 75.685099 128.81476 76.354309 129.08789 77.144531 129.08789 L 77.144531 127.6582 C 76.756475 127.6582 76.425557 127.52397 76.150391 127.25586 C 75.875224 126.98069 75.738281 126.64977 75.738281 126.26172 L 75.738281 124.81055 L 77.144531 124.81055 L 77.144531 123.59375 L 75.738281 123.59375 L 75.738281 120.70508 L 74.308594 120.70508 z M 63.835938 122.13477 C 64.62616 122.13477 65.29266 122.40865 65.835938 122.95898 C 66.386271 123.50932 66.662109 124.18048 66.662109 124.9707 C 66.662109 125.76092 66.386271 126.43014 65.835938 126.98047 C 65.29266 127.52375 64.62616 127.79688 63.835938 127.79688 C 63.045715 127.79688 62.376505 127.52375 61.826172 126.98047 C 61.275839 126.43014 61 125.76092 61 124.9707 C 61 124.17342 61.271175 123.50226 61.814453 122.95898 C 62.364786 122.40865 63.03866 122.13477 63.835938 122.13477 z M 71.646484 123.58398 C 70.856262 123.58398 70.187052 123.85982 69.636719 124.41016 C 69.086385 124.95344 68.810547 125.61994 68.810547 126.41016 C 68.810547 127.20744 69.081722 127.88131 69.625 128.43164 C 70.175333 128.97492 70.849207 129.24609 71.646484 129.24609 C 72.401429 129.24609 73.055135 128.98034 73.605469 128.45117 L 72.695312 127.33008 C 72.420146 127.65464 72.069818 127.81641 71.646484 127.81641 C 71.258429 127.81641 70.92751 127.67946 70.652344 127.4043 C 70.377177 127.12913 70.240234 126.79822 70.240234 126.41016 C 70.240234 126.0221 70.377177 125.69389 70.652344 125.42578 C 70.92751 125.15061 71.258429 125.01172 71.646484 125.01172 C 72.055707 125.01172 72.398661 125.1634 72.673828 125.4668 L 73.53125 124.31445 C 72.995027 123.82762 72.366151 123.58398 71.646484 123.58398 z M 88.265625 123.58398 C 87.475403 123.58398 86.806193 123.85982 86.255859 124.41016 C 85.705526 124.95344 85.429688 125.61994 85.429688 126.41016 L 85.429688 129.08789 L 86.859375 129.08789 L 86.859375 126.41016 C 86.859375 126.0221 86.996318 125.69389 87.271484 125.42578 C 87.546651 125.15061 87.87757 125.01172 88.265625 125.01172 C 88.646625 125.01172 88.974833 125.15061 89.25 125.42578 C 89.525167 125.70095 89.664063 126.02916 89.664062 126.41016 L 89.673828 129.08789 L 91.101562 129.08789 L 91.101562 126.41016 C 91.101562 125.61994 90.827677 124.95344 90.277344 124.41016 C 89.72701 123.85982 89.055847 123.58398 88.265625 123.58398 z M 80.710938 123.59375 C 80.393437 123.59375 80.069893 123.6535 79.738281 123.77344 C 79.173837 123.97805 78.721479 124.32371 78.382812 124.81055 C 78.044146 125.29033 77.875 125.83192 77.875 126.43164 C 77.875 127.21481 78.146175 127.88131 78.689453 128.43164 C 79.239786 128.98197 79.91095 129.25586 80.701172 129.25586 C 81.576061 129.25586 82.294931 128.92494 82.859375 128.26172 L 83.166016 129.08789 L 84.679688 129.08789 L 83.367188 125.4668 C 83.162577 124.90235 82.816911 124.45195 82.330078 124.11328 C 81.8503 123.76756 81.310659 123.59375 80.710938 123.59375 z M 91.488281 123.59375 L 93.308594 126.24023 L 91.277344 129.08789 L 93.160156 129.08789 L 94.166016 127.45703 L 95.140625 129.08789 L 97.001953 129.08789 L 95.066406 126.24023 L 96.949219 123.59375 L 95.171875 123.59375 L 94.21875 125.07617 L 93.287109 123.59375 L 91.488281 123.59375 z M 80.701172 125.0332 C 81.004561 125.0332 81.273026 125.11506 81.505859 125.27734 C 81.908026 125.55251 82.107422 125.93775 82.107422 126.43164 C 82.107422 126.81969 81.970479 127.15061 81.695312 127.42578 C 81.420146 127.69389 81.089228 127.82812 80.701172 127.82812 C 80.41895 127.82813 80.153195 127.74355 79.90625 127.57422 C 79.504083 127.29905 79.304688 126.91847 79.304688 126.43164 C 79.304687 126.14236 79.38926 125.87389 79.558594 125.62695 C 79.826705 125.23184 80.207283 125.0332 80.701172 125.0332 z "
         style="font-style:normal;font-variant:normal;font-weight:normal;font-stretch:normal;font-family:moderna;-inkscape-font-specification:moderna;stroke-width:0.26458332"
         id="path46"
         d="m 63.835938,120.70508 c -1.192389,0 -2.201844,0.41278 -3.027344,1.23828 -0.8255,0.8255 -1.238282,1.83496 -1.238282,3.02734 10e-7,1.19239 0.412782,2.19989 1.238282,3.02539 0.8255,0.81845 1.834955,1.22852 3.027344,1.22852 1.185333,0 2.190125,-0.41278 3.015624,-1.23828 0.8255,-0.8255 1.238282,-1.83029 1.238282,-3.01563 0,-1.19238 -0.412782,-2.20184 -1.238282,-3.02734 -0.818443,-0.8255 -1.823235,-1.23828 -3.015624,-1.23828 z m 10.472656,0 v 5.55664 c 0,0.79022 0.275838,1.45943 0.826172,2.00976 0.550333,0.54328 1.219543,0.81641 2.009765,0.81641 v -1.42969 c -0.388056,0 -0.718974,-0.13423 -0.99414,-0.40234 -0.275167,-0.27517 -0.41211,-0.60609 -0.41211,-0.99414 v -1.45117 h 1.40625 v -1.2168 h -1.40625 v -2.88867 z m -10.472656,1.42969 c 0.790222,0 1.456722,0.27388 2,0.82421 0.550333,0.55034 0.826171,1.2215 0.826171,2.01172 0,0.79022 -0.275838,1.45944 -0.826171,2.00977 -0.543278,0.54328 -1.209778,0.81641 -2,0.81641 -0.790223,0 -1.459433,-0.27313 -2.009766,-0.81641 C 61.275839,126.43014 61,125.76092 61,124.9707 c 0,-0.79728 0.271175,-1.46844 0.814453,-2.01172 0.550333,-0.55033 1.224207,-0.82421 2.021485,-0.82421 z m 7.810546,1.44921 c -0.790222,0 -1.459432,0.27584 -2.009765,0.82618 -0.550334,0.54328 -0.826172,1.20978 -0.826172,2 0,0.79728 0.271175,1.47115 0.814453,2.02148 0.550333,0.54328 1.224207,0.81445 2.021484,0.81445 0.754945,0 1.408651,-0.26575 1.958985,-0.79492 l -0.910157,-1.12109 c -0.275166,0.32456 -0.625494,0.48633 -1.048828,0.48633 -0.388055,0 -0.718974,-0.13695 -0.99414,-0.41211 -0.275167,-0.27517 -0.41211,-0.60608 -0.41211,-0.99414 0,-0.38806 0.136943,-0.71627 0.41211,-0.98438 0.275166,-0.27517 0.606085,-0.41406 0.99414,-0.41406 0.409223,0 0.752177,0.15168 1.027344,0.45508 l 0.857422,-1.15235 c -0.536223,-0.48683 -1.165099,-0.73047 -1.884766,-0.73047 z m 16.619141,0 c -0.790222,0 -1.459432,0.27584 -2.009766,0.82618 -0.550333,0.54328 -0.826171,1.20978 -0.826171,2 v 2.67773 h 1.429687 v -2.67773 c 0,-0.38806 0.136943,-0.71627 0.412109,-0.98438 0.275167,-0.27517 0.606086,-0.41406 0.994141,-0.41406 0.381,0 0.709208,0.13889 0.984375,0.41406 0.275167,0.27517 0.414063,0.60338 0.414062,0.98438 l 0.0098,2.67773 h 1.427734 v -2.67773 c 0,-0.79022 -0.273885,-1.45672 -0.824218,-2 -0.550334,-0.55034 -1.221497,-0.82618 -2.011719,-0.82618 z m -7.554687,0.01 c -0.317501,0 -0.641045,0.0597 -0.972657,0.17969 -0.564444,0.20461 -1.016802,0.55027 -1.355469,1.03711 -0.338666,0.47978 -0.507812,1.02137 -0.507812,1.62109 0,0.78317 0.271175,1.44967 0.814453,2 0.550333,0.55033 1.221497,0.82422 2.011719,0.82422 0.874889,0 1.593759,-0.33092 2.158203,-0.99414 l 0.306641,0.82617 h 1.513672 l -1.3125,-3.62109 c -0.204611,-0.56445 -0.550277,-1.01485 -1.03711,-1.35352 -0.479778,-0.34572 -1.019419,-0.51953 -1.61914,-0.51953 z m 10.777343,0 1.820313,2.64648 -2.03125,2.84766 h 1.882812 l 1.00586,-1.63086 0.974609,1.63086 h 1.861328 l -1.935547,-2.84766 1.882813,-2.64648 h -1.777344 l -0.953125,1.48242 -0.931641,-1.48242 z m -10.787109,1.43945 c 0.303389,0 0.571854,0.0819 0.804687,0.24414 0.402167,0.27517 0.601563,0.66041 0.601563,1.1543 0,0.38805 -0.136943,0.71897 -0.41211,0.99414 -0.275166,0.26811 -0.606084,0.40234 -0.99414,0.40234 -0.282222,1e-5 -0.547977,-0.0846 -0.794922,-0.2539 -0.402167,-0.27517 -0.601562,-0.65575 -0.601562,-1.14258 -10e-7,-0.28928 0.08457,-0.55775 0.253906,-0.80469 0.268111,-0.39511 0.648689,-0.59375 1.142578,-0.59375 z" />
    </g>
  </g>
</svg>
